# xmcd
#
# Track frame offsets:
# 150
# 15602
# 36438
# 47376
# 66877
# 86165
# 107841
# 129055
# 143171
# 156140
# 169958
#
# Disc length: 2876 seconds
#
# Revision: 1
# Processed by: cddbd v1.5.1PL0 Copyright (c) Steve Scherf et al.
# Submitted via: inCDius 2.0b9
#
DISCID=8d0b3a0b
DTITLE=Texan Tail - Off The Record
DYEAR=1900
DGENRE=
TTITLE0=X-tra Pee Wee
TTITLE1=Evil Hearted Woman
TTITLE2=Go On Fool
TTITLE3=Pink Champagne
TTITLE4=Bye Bye Boogle
TTITLE5=How Much Longer?
TTITLE6=Confessin' The Blues
TTITLE7=Vicious Vicious Wodka
TTITLE8=Right For You
TTITLE9=South Shore Drive
TTITLE10=I Stepped In Quicksand
EXTD=
EXTT0=
EXTT1=
EXTT2=
EXTT3=
EXTT4=
EXTT5=
EXTT6=
EXTT7=
EXTT8=
EXTT9=
EXTT10=
PLAYORDER=
